<?xml version="1.0" standalone="no"?>
<!DOCTYPE svg PUBLIC "-//W3C//DTD SVG 20010904//EN"
 "http://www.w3.org/TR/2001/REC-SVG-20010904/DTD/svg10.dtd">
<svg version="1.0" xmlns="http://www.w3.org/2000/svg"
 width="167.000000pt" height="161.000000pt" viewBox="0 0 167.000000 161.000000"
 preserveAspectRatio="xMidYMid meet">
<metadata>
Created by potrace 1.16, written by Peter Selinger 2001-2019
</metadata>
<g transform="translate(0.000000,161.000000) scale(0.100000,-0.100000)"
fill="#000000" stroke="none">
<path d="M730 1557 c-135 -67 -244 -136 -353 -222 -55 -44 -104 -79 -109 -77
-4 1 -7 -2 -6 -6 2 -4 -51 -58 -117 -118 -139 -128 -130 -94 -84 -326 49 -247
105 -417 209 -634 37 -78 64 -124 76 -127 11 -3 64 -14 119 -24 80 -14 153
-18 360 -18 248 0 292 3 460 36 56 11 55 9 136 171 91 179 151 384 200 671
l21 128 -77 84 c-94 104 -230 219 -350 297 -49 33 -89 64 -87 69 1 6 -2 8 -7
5 -5 -3 -69 26 -143 64 -74 39 -141 70 -149 70 -8 0 -52 -20 -99 -43z m183
-63 c187 -94 364 -208 465 -300 34 -30 59 -61 56 -66 -4 -6 -2 -8 3 -5 10 6
107 -85 125 -116 16 -30 -55 -379 -111 -540 -31 -90 -119 -276 -149 -314 -21
-26 -124 -46 -337 -64 -155 -13 -357 -2 -515 29 l-84 17 -50 100 c-96 196
-159 391 -206 644 l-23 124 84 81 c94 92 253 221 347 285 81 54 282 161 305
161 10 0 50 -16 90 -36z"/>
<path d="M543 1247 c-58 -40 -73 -103 -40 -168 17 -35 31 -47 63 -58 37 -13
44 -12 80 5 78 38 95 144 34 206 -15 15 -26 28 -25 30 2 2 -16 4 -39 5 -30 2
-50 -3 -73 -20z m87 -7 c38 -20 52 -117 25 -170 -28 -54 -87 -51 -111 6 -39
94 17 201 86 164z"/>
<path d="M730 1225 c0 -41 12 -45 28 -10 7 15 20 25 32 25 19 0 20 -6 20 -100
0 -93 -1 -100 -20 -100 -11 0 -20 -4 -20 -10 0 -6 27 -10 60 -10 63 0 73 7 39
28 -19 12 -20 21 -17 102 3 77 5 90 20 90 10 0 25 -11 34 -25 23 -35 34 -31
34 10 l0 35 -105 0 -105 0 0 -35z"/>
<path d="M960 1251 c0 -5 7 -11 15 -15 12 -4 15 -25 15 -101 0 -78 -3 -95 -15
-95 -8 0 -15 -4 -15 -10 0 -5 25 -10 55 -10 30 0 55 5 55 10 0 6 -6 10 -14 10
-18 0 -23 14 -18 56 6 51 29 42 58 -21 24 -51 28 -55 60 -55 19 0 34 5 34 10
0 6 -7 10 -15 10 -8 0 -26 22 -40 49 -13 27 -29 51 -36 53 -9 3 8 57 28 87 1
2 10 -2 18 -9 20 -16 41 1 31 25 -4 11 -15 15 -33 13 -22 -2 -33 -14 -54 -53
-31 -62 -52 -66 -52 -10 0 34 3 40 20 39 14 0 19 4 16 13 -6 15 -113 19 -113
4z"/>
<path d="M235 962 c6 -5 42 -23 80 -40 39 -16 95 -41 125 -55 30 -14 129 -60
219 -101 l165 -76 300 131 c166 72 306 136 311 142 7 7 4 8 -10 3 -45 -16
-349 -55 -480 -61 -190 -9 -515 19 -694 62 -18 4 -23 2 -16 -5z"/>
<path d="M665 488 c-82 -105 -177 -224 -209 -266 -33 -42 -53 -72 -45 -67 8 5
101 67 207 137 106 71 198 126 204 122 7 -4 8 -3 4 4 -19 31 35 2 195 -104 96
-63 190 -125 209 -137 l35 -21 -45 54 c-25 30 -94 114 -155 186 -60 72 -138
165 -173 207 -34 42 -66 77 -70 77 -4 -1 -74 -87 -157 -192z"/>
</g>
</svg>
